<svg xmlns="http://www.w3.org/2000/svg" width="38.24" height="34.564" viewBox="0 0 38.24 34.564">
  <g id="Grupo_3452" data-name="Grupo 3452" transform="translate(-939.691 -1801.686)">
    <rect id="Rectángulo_48" data-name="Rectángulo 48" width="38.24" height="34.564" transform="translate(939.691 1801.686)" fill="#ff254d"/>
    <path id="Trazado_6068" data-name="Trazado 6068" d="M959.052,1807.79a11.178,11.178,0,1,0,11.179,11.179A11.179,11.179,0,0,0,959.052,1807.79Zm5.143,16.153a.664.664,0,0,1-.95.223c-2.627-1.62-5.925-1.956-9.838-1.061a.692.692,0,0,1-.335-1.342c4.248-.95,7.937-.559,10.843,1.23A.67.67,0,0,1,964.2,1823.943Zm1.341-3.074a.842.842,0,0,1-1.174.279,14.488,14.488,0,0,0-11.122-1.285.849.849,0,0,1-.5-1.621,16.351,16.351,0,0,1,12.577,1.509A.789.789,0,0,1,965.536,1820.869Zm.112-3.13c-3.577-2.124-9.558-2.348-12.967-1.286a1.025,1.025,0,1,1-.615-1.956c3.968-1.174,10.508-.95,14.644,1.509a1.081,1.081,0,0,1,.391,1.453A1.171,1.171,0,0,1,965.648,1817.739Z" fill="#fff"/>
  </g>
</svg>
