<svg xmlns="http://www.w3.org/2000/svg" width="26.007" height="22.528" viewBox="0 0 26.007 22.528">
  <g id="Grupo_4139" data-name="Grupo 4139" transform="translate(-763.394 -297.797)">
    <rect id="Rectángulo_59" data-name="Rectángulo 59" width="26.007" height="22.528" transform="translate(763.394 297.797)" fill="#ff254d"/>
    <g id="Grupo_4138" data-name="Grupo 4138">
      <path id="Trazado_7296" data-name="Trazado 7296" d="M771.718,317.442l2.558-.014.394,0,0-.393a1.772,1.772,0,1,1,3.543-.019l0,.394.393,0,2.559-.013,0-.394-.085-16.139-2.953.016,0,.393a1.772,1.772,0,1,1-3.543.019l0-.393-2.953.015.086,16.139,0,.394Zm.783-.792-.053-10.037,7.873-.042.053,10.038-1.421.007a2.548,2.548,0,0,0-5.038.027l-1.414.007Z" fill="#fff"/>
    </g>
  </g>
</svg>
