<svg xmlns="http://www.w3.org/2000/svg" width="38.24" height="34.564" viewBox="0 0 38.24 34.564">
  <g id="Grupo_4210" data-name="Grupo 4210" transform="translate(-986.831 -6825.454)">
    <rect id="Rectángulo_12" data-name="Rectángulo 12" width="38.24" height="34.564" transform="translate(986.831 6825.454)" fill="#fff"/>
    <g id="Grupo_25" data-name="Grupo 25">
      <path id="Trazado_12" data-name="Trazado 12" d="M1020.614,6835.321a3.845,3.845,0,0,0-2.706-2.723c-2.387-.644-11.957-.644-11.957-.644s-9.571,0-11.957.644a3.845,3.845,0,0,0-2.706,2.723,43.269,43.269,0,0,0,0,14.829,3.845,3.845,0,0,0,2.706,2.723c2.386.644,11.957.644,11.957.644s9.57,0,11.957-.644a3.845,3.845,0,0,0,2.706-2.723,43.338,43.338,0,0,0,0-14.829Z" fill="#ff254d"/>
      <path id="Trazado_13" data-name="Trazado 13" d="M1002.821,6847.286v-9.1l8,4.551Z" fill="#fff"/>
    </g>
  </g>
</svg>
