<svg xmlns="http://www.w3.org/2000/svg" width="38.24" height="34.564" viewBox="0 0 38.24 34.564">
  <g id="Grupo_4209" data-name="Grupo 4209" transform="translate(-940.88 -6825.453)">
    <rect id="Rectángulo_11" data-name="Rectángulo 11" width="38.24" height="34.564" transform="translate(940.88 6825.453)" fill="#fff"/>
    <path id="Trazado_11" data-name="Trazado 11" d="M960.241,6831.557a11.178,11.178,0,1,0,11.179,11.179A11.179,11.179,0,0,0,960.241,6831.557Zm5.142,16.153a.665.665,0,0,1-.95.224c-2.627-1.621-5.925-1.957-9.837-1.062a.692.692,0,0,1-.336-1.342c4.248-.95,7.937-.559,10.844,1.23A.67.67,0,0,1,965.383,6847.71Zm1.342-3.074a.843.843,0,0,1-1.174.279,14.491,14.491,0,0,0-11.123-1.285.849.849,0,0,1-.5-1.621,16.349,16.349,0,0,1,12.576,1.509A.79.79,0,0,1,966.725,6844.636Zm.111-3.13c-3.577-2.124-9.557-2.348-12.967-1.286a1.025,1.025,0,0,1-.615-1.956c3.969-1.174,10.508-.95,14.645,1.509a1.082,1.082,0,0,1,.391,1.453A1.171,1.171,0,0,1,966.836,6841.506Z" fill="#ff254d"/>
  </g>
</svg>
