<svg xmlns="http://www.w3.org/2000/svg" width="38.24" height="34.564" viewBox="0 0 38.24 34.564">
  <g id="Grupo_3451" data-name="Grupo 3451" transform="translate(-893.741 -1801.686)">
    <rect id="Rectángulo_47" data-name="Rectángulo 47" width="38.24" height="34.564" transform="translate(893.741 1801.686)" fill="#ff254d"/>
    <g id="Grupo_3450" data-name="Grupo 3450">
      <path id="Trazado_6065" data-name="Trazado 6065" d="M912.861,1810.374c2.8,0,3.131.01,4.236.061a5.8,5.8,0,0,1,1.947.361,3.471,3.471,0,0,1,1.989,1.989,5.779,5.779,0,0,1,.361,1.947c.051,1.106.062,1.437.062,4.237s-.011,3.13-.062,4.236a5.766,5.766,0,0,1-.361,1.946,3.469,3.469,0,0,1-1.989,1.99,5.776,5.776,0,0,1-1.947.361c-1.1.051-1.437.061-4.236.061s-3.131-.01-4.237-.061a5.763,5.763,0,0,1-1.946-.361,3.467,3.467,0,0,1-1.99-1.99,5.818,5.818,0,0,1-.361-1.946c-.05-1.106-.061-1.437-.061-4.236s.011-3.131.061-4.237a5.831,5.831,0,0,1,.361-1.947,3.469,3.469,0,0,1,1.99-1.989,5.792,5.792,0,0,1,1.946-.361c1.106-.051,1.438-.061,4.237-.061m0-1.889c-2.848,0-3.2.012-4.323.063a7.691,7.691,0,0,0-2.544.487,5.366,5.366,0,0,0-3.066,3.066,7.677,7.677,0,0,0-.488,2.545c-.051,1.118-.063,1.475-.063,4.323s.012,3.2.063,4.322a7.678,7.678,0,0,0,.488,2.545,5.358,5.358,0,0,0,3.066,3.066,7.691,7.691,0,0,0,2.544.487c1.119.051,1.475.063,4.323.063s3.2-.012,4.322-.063a7.7,7.7,0,0,0,2.545-.487,5.358,5.358,0,0,0,3.066-3.066,7.706,7.706,0,0,0,.487-2.545c.051-1.118.063-1.475.063-4.322s-.012-3.2-.063-4.323a7.705,7.705,0,0,0-.487-2.545,5.365,5.365,0,0,0-3.066-3.066,7.7,7.7,0,0,0-2.545-.487c-1.118-.051-1.475-.063-4.322-.063" fill="#fff"/>
      <path id="Trazado_6066" data-name="Trazado 6066" d="M912.861,1813.585a5.384,5.384,0,1,0,5.383,5.384,5.384,5.384,0,0,0-5.383-5.384m0,8.878a3.495,3.495,0,1,1,3.494-3.494,3.5,3.5,0,0,1-3.494,3.494" fill="#fff"/>
      <path id="Trazado_6067" data-name="Trazado 6067" d="M919.715,1813.372a1.258,1.258,0,1,1-1.258-1.258,1.259,1.259,0,0,1,1.258,1.258" fill="#fff"/>
    </g>
  </g>
</svg>
