<svg xmlns="http://www.w3.org/2000/svg" width="38.24" height="34.564" viewBox="0 0 38.24 34.564">
  <g id="Grupo_4208" data-name="Grupo 4208" transform="translate(-894.929 -6825.453)">
    <g id="Grupo_4207" data-name="Grupo 4207">
      <rect id="Rectángulo_10" data-name="Rectángulo 10" width="38.24" height="34.564" transform="translate(894.929 6825.453)" fill="#fff"/>
    </g>
    <g id="Grupo_24" data-name="Grupo 24">
      <path id="Trazado_8" data-name="Trazado 8" d="M914.049,6834.141c2.8,0,3.131.01,4.236.061a5.791,5.791,0,0,1,1.947.361,3.471,3.471,0,0,1,1.99,1.989,5.834,5.834,0,0,1,.361,1.947c.05,1.106.061,1.437.061,4.237s-.011,3.13-.061,4.236a5.817,5.817,0,0,1-.361,1.946,3.468,3.468,0,0,1-1.99,1.99,5.778,5.778,0,0,1-1.947.361c-1.1.051-1.436.061-4.236.061s-3.131-.01-4.236-.061a5.79,5.79,0,0,1-1.947-.361,3.47,3.47,0,0,1-1.989-1.99,5.765,5.765,0,0,1-.361-1.946c-.051-1.106-.061-1.437-.061-4.236s.01-3.131.061-4.237a5.782,5.782,0,0,1,.361-1.947,3.473,3.473,0,0,1,1.989-1.989,5.8,5.8,0,0,1,1.947-.361c1.105-.051,1.437-.061,4.236-.061m0-1.889c-2.847,0-3.2.012-4.322.063a7.716,7.716,0,0,0-2.545.487,5.368,5.368,0,0,0-3.066,3.066,7.7,7.7,0,0,0-.487,2.545c-.051,1.118-.063,1.475-.063,4.323s.012,3.2.063,4.322a7.7,7.7,0,0,0,.487,2.545,5.358,5.358,0,0,0,3.066,3.066,7.691,7.691,0,0,0,2.545.487c1.118.051,1.475.063,4.322.063s3.2-.012,4.323-.063a7.679,7.679,0,0,0,2.544-.487,5.363,5.363,0,0,0,3.067-3.066,7.7,7.7,0,0,0,.487-2.545c.051-1.118.063-1.475.063-4.322s-.012-3.205-.063-4.323a7.7,7.7,0,0,0-.487-2.545,5.373,5.373,0,0,0-3.067-3.066,7.7,7.7,0,0,0-2.544-.487c-1.119-.051-1.476-.063-4.323-.063" fill="#ff254d"/>
      <path id="Trazado_9" data-name="Trazado 9" d="M914.049,6837.352a5.384,5.384,0,1,0,5.384,5.384,5.383,5.383,0,0,0-5.384-5.384m0,8.878a3.494,3.494,0,1,1,3.495-3.494,3.494,3.494,0,0,1-3.495,3.494" fill="#ff254d"/>
      <path id="Trazado_10" data-name="Trazado 10" d="M920.9,6837.139a1.258,1.258,0,1,1-1.258-1.258,1.259,1.259,0,0,1,1.258,1.258" fill="#ff254d"/>
    </g>
  </g>
</svg>
