<svg xmlns="http://www.w3.org/2000/svg" width="131.252" height="22.936" viewBox="0 0 131.252 22.936">
  <path id="Unión_4" data-name="Unión 4" d="M1000.674,47.325a.867.867,0,0,1-.868-.869l.01-7.846a5.438,5.438,0,0,1,5.438-5.438h7.372c1.574.007,2.913.052,2.913-.823s-1.443-.775-2.741-.775h-11.681a.868.868,0,0,1-.868-.868V25.258a.863.863,0,0,1,.863-.868c2.579,0,10.309,0,14.421,0,4.984,0,9.951,1,9.951,7.106s-4.085,7.11-9.59,7.11h-5.257a.821.821,0,0,0-.82.821v.709h14.5a.869.869,0,0,1,.869.868v5.449a.869.869,0,0,1-.869.868Zm-30.552,0a.869.869,0,0,1-.868-.869l.01-7.846a5.438,5.438,0,0,1,5.439-5.438h7.372c1.573.007,2.913.052,2.913-.823s-1.443-.775-2.742-.775H970.564a.867.867,0,0,1-.868-.868V25.258a.863.863,0,0,1,.862-.868c2.579,0,10.31,0,14.422,0,4.984,0,9.951,1,9.951,7.106s-4.085,7.11-9.591,7.11h-5.256a.822.822,0,0,0-.821.821v.709h14.5a.868.868,0,0,1,.869.868v5.449a.868.868,0,0,1-.869.868Zm-44.47,0a.869.869,0,0,1-.868-.869l.011-7.846a5.437,5.437,0,0,1,5.438-5.438H937.6c1.574.007,2.913.052,2.913-.823s-1.443-.775-2.742-.775h-11.68a.868.868,0,0,1-.868-.868V25.258a.863.863,0,0,1,.863-.868c2.579,0,10.309,0,14.421,0,4.984,0,9.951,1,9.951,7.106s-4.085,7.11-9.591,7.11h-5.256a.821.821,0,0,0-.82.821v.709h14.5a.868.868,0,0,1,.869.868v5.449a.869.869,0,0,1-.869.868Zm-30.551,0a.868.868,0,0,1-.869-.869l.01-7.846a5.438,5.438,0,0,1,5.438-5.438h7.372c1.574.007,2.914.052,2.914-.823s-1.443-.775-2.741-.775H895.542a.868.868,0,0,1-.869-.868V25.258a.864.864,0,0,1,.863-.868c2.58,0,10.31,0,14.422,0,4.984,0,9.951,1,9.951,7.106s-4.085,7.11-9.591,7.11h-5.256a.822.822,0,0,0-.821.821v.709h14.5a.868.868,0,0,1,.868.868v5.449a.868.868,0,0,1-.868.868Zm62.831-1.591,2.114-3.66h4.227l-2.114,3.66Zm-2.691-3.994,2.112-3.66,2.113,3.66-2.113,3.66Zm4.805-.334-2.114-3.661h4.227l2.114,3.661Zm-2.5-7.288-2.114-3.659h4.227l2.114,3.659Zm2.693-3.993,2.113-3.661,2.111,3.661-2.111,3.66Zm-4.807-.335,2.114-3.66h4.227l-2.114,3.66Z" transform="translate(-894.231 -24.389)" fill="#fff"/>
</svg>
