<svg xmlns="http://www.w3.org/2000/svg" width="140.614" height="46.945" viewBox="0 0 140.614 46.945">
  <g id="Grupo_88" data-name="Grupo 88" transform="translate(-21.362 -22.362)">
    <g id="Grupo_87" data-name="Grupo 87">
      <path id="Trazado_136" data-name="Trazado 136" d="M63.983,59.859a2.629,2.629,0,0,0-1.834.681,2.48,2.48,0,0,0-.749,1.935,2.513,2.513,0,0,0,.749,1.946,2.778,2.778,0,0,0,3.667,0,2.514,2.514,0,0,0,.75-1.946,2.48,2.48,0,0,0-.75-1.935A2.628,2.628,0,0,0,63.983,59.859Z" fill="#fff"/>
      <path id="Trazado_137" data-name="Trazado 137" d="M143.449,59.381a2.288,2.288,0,0,0-1.615.553,1.931,1.931,0,0,0-.669,1.233h4.59a1.839,1.839,0,0,0-.611-1.255A2.4,2.4,0,0,0,143.449,59.381Z" fill="#fff"/>
      <path id="Trazado_138" data-name="Trazado 138" d="M50.724,59.859a2.637,2.637,0,0,0-1.822.681,2.46,2.46,0,0,0-.762,1.935,2.493,2.493,0,0,0,.762,1.946,2.779,2.779,0,0,0,3.655.011,2.512,2.512,0,0,0,.75-1.957,2.477,2.477,0,0,0-.75-1.946A2.651,2.651,0,0,0,50.724,59.859Z" fill="#fff"/>
      <path id="Trazado_139" data-name="Trazado 139" d="M118.907,59.806a2.641,2.641,0,0,0-1.823.681,2.46,2.46,0,0,0-.761,1.935,2.5,2.5,0,0,0,.761,1.946,2.78,2.78,0,0,0,3.656.011,2.511,2.511,0,0,0,.749-1.957,2.476,2.476,0,0,0-.749-1.946A2.651,2.651,0,0,0,118.907,59.806Z" fill="#fff"/>
      <path id="Trazado_140" data-name="Trazado 140" d="M161.976,22.362H21.362V54.7h0V69.307h2.517V57.2H27.27v1.084a3.008,3.008,0,0,1,1.3-.946,5.161,5.161,0,0,1,2.064-.394,5.063,5.063,0,0,1,3.886,1.542,5.577,5.577,0,0,1,1.442,3.967,5.458,5.458,0,0,1-1.534,3.987A5.273,5.273,0,0,1,30.5,68a3.983,3.983,0,0,1-3.114-1.064v2.366H161.976V22.362ZM126.794,31h6.685v2.81a4.851,4.851,0,0,1,2.5-2.307,8.567,8.567,0,0,1,3.365-.713,6.98,6.98,0,0,1,1.819.21v6.29a10.28,10.28,0,0,0-2.182-.209,5.332,5.332,0,0,0-3.8,1.384,5.6,5.6,0,0,0-1.478,4.277v9.1h-6.913ZM44.149,60.391a5.183,5.183,0,0,0-1.107-.107,2.7,2.7,0,0,0-1.925.7,2.835,2.835,0,0,0-.75,2.169v4.616H36.861V57.2h3.391v1.425a2.454,2.454,0,0,1,1.268-1.17,4.347,4.347,0,0,1,1.707-.362,3.539,3.539,0,0,1,.922.107ZM55.071,66.5a6.722,6.722,0,0,1-8.683-.01,5.473,5.473,0,0,1,0-8.029,6.76,6.76,0,0,1,8.683-.011,5.523,5.523,0,0,1,0,8.05ZM66.7,67.771a5.785,5.785,0,0,1-.092-1.021,2.949,2.949,0,0,1-1.234.9A4.609,4.609,0,0,1,63.545,68a5.6,5.6,0,0,1-4.06-1.564,5.739,5.739,0,0,1-.046-7.932,5.413,5.413,0,0,1,3.99-1.564q2.354,0,3.091,1.085V54.7H23.879V40.6c1.455-.012,4.665-.017,11.89-.03a.389.389,0,0,1,.322.163,8.14,8.14,0,0,1,.633,1.426c.444,1.2,1,2.689,2.377,2.689,1.472,0,1.906-2,2.409-4.311a19.973,19.973,0,0,1,.684-2.6,36.274,36.274,0,0,1,.827,4.6c.2,1.423.4,2.894.657,4,.183.792.564,2.439,1.764,2.439,1.144,0,1.491-1.468,1.772-3.1.252-1.469.455-3.438.652-5.342.169-1.643.344-3.341.547-4.68.092-.607.179-1.063.257-1.406.275,1.1.523,2.859.691,4.052.2,1.4.4,2.85.658,3.942.184.782.566,2.408,1.763,2.408,1.149,0,1.494-1.52,1.773-3.213.252-1.532.455-3.585.651-5.571.17-1.72.346-3.5.55-4.9.043-.3.085-.555.125-.785.077.516.16,1.179.246,2.028.213,2.1.394,4.781.569,7.377.195,2.9.4,5.9.647,8.129.344,3.062.682,4.428,1.78,4.428.909,0,1.217-1.021,1.334-1.405a15.863,15.863,0,0,0,.442-2.249c.251-1.781.454-4.174.65-6.489.172-2.033.35-4.136.558-5.787.091-.726.178-1.278.256-1.7.045.2.092.436.141.707.2,1.1.371,2.488.538,3.832.2,1.587.4,3.229.655,4.46.267,1.292.646,2.67,1.767,2.67,1.489,0,1.9-2.109,2.414-4.781.114-.591.267-1.382.437-2.064a.386.386,0,0,1,.746-.008c.133.474.252.974.339,1.341.487,2.046.947,3.978,2.406,3.978.877,0,1.494-.623,2.21-1.344a8.58,8.58,0,0,1,3.953-2.554v.069a.343.343,0,0,0,.343.343h1.259l.295.053,1.556.584a1.519,1.519,0,0,0,.529.1h5.5a.8.8,0,0,0,.8-.805.386.386,0,0,1,.386-.386h3.014a.385.385,0,0,0,.386-.385V39.58a.386.386,0,0,0-.386-.386H87.638a.385.385,0,0,1-.386-.385h0a.8.8,0,0,0-.8-.8h-5.5a1.506,1.506,0,0,0-.515.091l-1.545.562-.287.05H77.312a.343.343,0,0,0-.343.343v.156a10.153,10.153,0,0,0-5.152,3.106c-.157.159-.353.356-.534.52a.384.384,0,0,1-.617-.134,19.37,19.37,0,0,1-.625-2.223c-.487-2.046-.947-3.979-2.406-3.979-1.489,0-1.9,2.11-2.414,4.781a25.386,25.386,0,0,1-.676,2.9,13.273,13.273,0,0,1-.291-1.307c-.2-1.1-.371-2.488-.538-3.832-.2-1.588-.4-3.229-.655-4.461-.267-1.292-.646-2.67-1.768-2.67-.909,0-1.217,1.021-1.334,1.4a15.863,15.863,0,0,0-.442,2.249c-.251,1.78-.454,4.174-.65,6.489-.172,2.033-.349,4.136-.558,5.787-.049.4-.1.739-.144,1.037-.069-.485-.142-1.087-.218-1.832-.212-2.1-.393-4.782-.568-7.377-.2-2.9-.4-5.9-.647-8.13-.344-3.061-.682-4.427-1.78-4.427-1.149,0-1.495,1.52-1.774,3.214-.252,1.531-.455,3.585-.651,5.57-.17,1.72-.345,3.5-.55,4.9-.094.643-.182,1.125-.261,1.486-.273-1.1-.518-2.839-.684-4.022-.2-1.4-.4-2.85-.658-3.942-.184-.781-.566-2.408-1.763-2.408-1.144,0-1.491,1.468-1.772,3.1-.253,1.469-.455,3.438-.652,5.342-.169,1.643-.344,3.341-.547,4.68-.091.6-.177,1.053-.254,1.394-.277-1.12-.525-2.911-.694-4.127-.2-1.422-.4-2.893-.658-4-.183-.791-.564-2.438-1.763-2.438-1.473,0-1.907,2-2.41,4.311A13.368,13.368,0,0,1,39.02,43.1a6.312,6.312,0,0,1-.714-1.526c-.444-1.2-1-2.689-2.376-2.689-.2,0-9.174-.031-12.051.052V24.879H105.73V54.7H69.98V65.878q0,.957.092,1.893Zm12.194,0a4.751,4.751,0,0,1-.092-1.064,2.549,2.549,0,0,1-1.269.968,4.946,4.946,0,0,1-1.8.33,4.283,4.283,0,0,1-3.194-1.181,4.022,4.022,0,0,1-1.165-2.945V57.2h3.506v6a1.862,1.862,0,0,0,.473,1.319,1.778,1.778,0,0,0,1.372.51,1.927,1.927,0,0,0,1.395-.5,1.733,1.733,0,0,0,.519-1.308V57.2H82.15v8.677a14.151,14.151,0,0,0,.115,1.893ZM93,67a5.834,5.834,0,0,1-3.609,1.085A6.353,6.353,0,0,1,85.021,66.5,5.122,5.122,0,0,1,83.234,62.5a5.209,5.209,0,0,1,1.741-4.03,6.156,6.156,0,0,1,4.3-1.584,5.981,5.981,0,0,1,3.667,1.063,4.746,4.746,0,0,1,1.846,2.616l-3.137.872a2.209,2.209,0,0,0-.784-1.127,2.418,2.418,0,0,0-1.522-.447,2.641,2.641,0,0,0-1.88.7,2.521,2.521,0,0,0-.75,1.935,2.457,2.457,0,0,0,.773,1.914,2.725,2.725,0,0,0,1.9.7,2.53,2.53,0,0,0,1.557-.457,2.207,2.207,0,0,0,.818-1.117l3.091.872A4.833,4.833,0,0,1,93,67Zm12.44-.053a5.835,5.835,0,0,1-3.609,1.084,6.356,6.356,0,0,1-4.371-1.584,5.122,5.122,0,0,1-1.787-4.009,5.209,5.209,0,0,1,1.741-4.03,6.155,6.155,0,0,1,4.3-1.585,5.983,5.983,0,0,1,3.667,1.064,4.746,4.746,0,0,1,1.846,2.616l-3.137.872a2.215,2.215,0,0,0-.784-1.127,2.419,2.419,0,0,0-1.523-.447,2.641,2.641,0,0,0-1.879.7,2.521,2.521,0,0,0-.75,1.935,2.454,2.454,0,0,0,.773,1.914,2.725,2.725,0,0,0,1.9.7,2.525,2.525,0,0,0,1.556-.457,2.209,2.209,0,0,0,.819-1.117l3.091.872A4.833,4.833,0,0,1,105.441,66.952Zm6.2.765h-3.506V57.147h3.506Zm-3.39-31.143V31h1.137a3.171,3.171,0,0,0,3.5-3.4V24.916h6.186V31h4.411v5.577h-4.411v7.8q0,2.181,2.5,2.181a8.923,8.923,0,0,0,1.819-.21V51.63a8.813,8.813,0,0,1-3.593.587,8,8,0,0,1-5.525-1.8,6.237,6.237,0,0,1-2.024-4.907V36.574Zm15.006,29.878a6.724,6.724,0,0,1-8.683-.011,5.472,5.472,0,0,1,0-8.028,6.756,6.756,0,0,1,8.683-.011,5.523,5.523,0,0,1,0,8.05Zm13.274,1.265h-3.506V61.635a1.855,1.855,0,0,0-.473-1.329,1.831,1.831,0,0,0-1.395-.5,1.854,1.854,0,0,0-1.373.521,1.805,1.805,0,0,0-.518,1.329v6.061h-3.506V57.147h3.39V58.36a2.873,2.873,0,0,1,1.35-1.1,4.64,4.64,0,0,1,1.856-.393,3.973,3.973,0,0,1,3.114,1.18,4.363,4.363,0,0,1,1.061,3.031Zm12.548-4.466H141.1a1.908,1.908,0,0,0,.808,1.457,2.863,2.863,0,0,0,1.8.585,2.2,2.2,0,0,0,2.306-1.382l2.929.765a4.414,4.414,0,0,1-1.822,2.414,5.991,5.991,0,0,1-3.46.946,6.185,6.185,0,0,1-4.232-1.531,5.661,5.661,0,0,1-.046-8.124,5.758,5.758,0,0,1,4.025-1.553,5.917,5.917,0,0,1,4.209,1.436,5.2,5.2,0,0,1,1.533,3.988A4.1,4.1,0,0,1,149.076,63.251Zm9.183,3.733a4.939,4.939,0,0,1-3.368,1.052,6.836,6.836,0,0,1-2.248-.34,3.725,3.725,0,0,1-1.5-.882,4.487,4.487,0,0,1-.785-1.074,2.912,2.912,0,0,1-.311-1.021l2.976-.489a1.484,1.484,0,0,0,.495,1.01,1.858,1.858,0,0,0,1.3.414,1.6,1.6,0,0,0,.992-.265.794.794,0,0,0,.346-.649q0-.637-1.13-.872l-1.315-.276a4.771,4.771,0,0,1-2.583-1.2,2.856,2.856,0,0,1-.83-2.052,3.1,3.1,0,0,1,1.257-2.488,4.829,4.829,0,0,1,3.148-1.022,4.942,4.942,0,0,1,3.356.989,3.336,3.336,0,0,1,1.234,2.159l-2.906.489a1.449,1.449,0,0,0-.473-.936,1.7,1.7,0,0,0-1.165-.361,1.5,1.5,0,0,0-.876.255.772.772,0,0,0-.369.659q0,.639.9.787l1.522.277a4.9,4.9,0,0,1,2.63,1.212,2.873,2.873,0,0,1,.9,2.106A3.246,3.246,0,0,1,158.259,66.984Zm1.2-30.41h-4.411v7.8q0,2.181,2.5,2.181a8.923,8.923,0,0,0,1.819-.21V51.63a8.813,8.813,0,0,1-3.593.587,8,8,0,0,1-5.525-1.8,6.237,6.237,0,0,1-2.024-4.907V36.574h-4V31h1.137a3.17,3.17,0,0,0,3.5-3.4V24.916h6.186V31h4.411Z" fill="#fff"/>
      <path id="Trazado_141" data-name="Trazado 141" d="M29.922,65.112a2.636,2.636,0,0,0,1.857-.691,2.517,2.517,0,0,0,.749-1.946,2.483,2.483,0,0,0-.749-1.935,2.66,2.66,0,0,0-1.857-.681,2.624,2.624,0,0,0-1.833.681,2.48,2.48,0,0,0-.75,1.935,2.514,2.514,0,0,0,.75,1.946A2.6,2.6,0,0,0,29.922,65.112Z" fill="#fff"/>
    </g>
    <rect id="Rectángulo_81" data-name="Rectángulo 81" width="0.664" height="1.706" transform="translate(91.402 39.152)" fill="#fff"/>
    <path id="Trazado_142" data-name="Trazado 142" d="M92.757,40.857a.612.612,0,0,0,.254-.312h.3c.035,0,.1.121.1.206v.042a.04.04,0,0,0,.019.036h0c.088.055.46-.092.724-.255l.6-.372a.253.253,0,0,0,.107-.192V40a.226.226,0,0,0-.109-.194l-.6-.372c-.264-.163-.636-.31-.724-.255h0a.041.041,0,0,0-.019.036v.053c0,.1-.061.234-.1.234h-.28a.6.6,0,0,0-.27-.354h-.175v1.706h.175Z" fill="#fff"/>
  </g>
</svg>
